<?xml version="1.0" encoding="UTF-8"?>
<svg version="1.1" xmlns="http://www.w3.org/2000/svg" width="405" height="405">
<path d="M0 0 C0.81984375 0.17160645 1.6396875 0.34321289 2.484375 0.52001953 C31.66485368 6.78017207 57.80135453 19.47088815 82.125 36.5625 C82.7233667 36.97999512 83.3217334 37.39749023 83.93823242 37.82763672 C85.33192464 38.83209582 86.67257783 39.90946506 88 41 C88 41.66 88 42.32 88 43 C88.54011719 43.22300781 89.08023437 43.44601563 89.63671875 43.67578125 C92.75919193 45.42539845 95.22136551 47.75236447 97.8125 50.1875 C98.34367432 50.68145264 98.87484863 51.17540527 99.42211914 51.68432617 C105.28517322 57.15943003 111.10489615 62.62153134 116 69 C116 69.66 116 70.32 116 71 C116.66 71 117.32 71 118 71 C119.20166016 72.35424805 119.20166016 72.35424805 120.5390625 74.26171875 C121.032854 74.96119629 121.52664551 75.66067383 122.03540039 76.38134766 C122.55996826 77.14237793 123.08453613 77.9034082 123.625 78.6875 C124.16697021 79.46915527 124.70894043 80.25081055 125.26733398 81.05615234 C126.85630731 83.36322166 128.43093299 85.67935871 130 88 C130.72058594 89.06089844 131.44117188 90.12179688 132.18359375 91.21484375 C146.17444569 112.8846664 155.53529283 137.63513839 160 163 C160.17660156 163.95036133 160.35320312 164.90072266 160.53515625 165.87988281 C162.36040125 176.85416837 162.3976801 187.77503813 162.375 198.875 C162.37418427 200.37317261 162.37418427 200.37317261 162.37335205 201.90161133 C162.33559768 216.97315673 161.69352614 231.31929495 158 246 C157.68651611 247.31750244 157.68651611 247.31750244 157.36669922 248.66162109 C150.78649961 275.85485049 138.16771708 301.12236581 121.26171875 323.30859375 C120.12290108 324.83524406 119.05649156 326.41526266 118 328 C117.34 328 116.68 328 116 328 C115.77699219 328.54011719 115.55398438 329.08023437 115.32421875 329.63671875 C113.57460155 332.75919193 111.24763553 335.22136551 108.8125 337.8125 C108.07157104 338.60926147 108.07157104 338.60926147 107.31567383 339.42211914 C101.84056997 345.28517322 96.37846866 351.10489615 90 356 C89.34 356 88.68 356 88 356 C88 356.66 88 357.32 88 358 C86.01390975 359.61886247 84.03526584 361.09988334 81.9375 362.5625 C81.3069873 363.00577637 80.67647461 363.44905273 80.02685547 363.90576172 C68.81551104 371.687493 57.06468111 378.2543359 44.76611328 384.14941406 C43.24150892 384.88368578 41.7271273 385.6391142 40.21484375 386.3984375 C15.59802472 398.34539449 -12.19878993 402.23060939 -39.25 402.25 C-40.09559479 402.25067474 -40.94118958 402.25134949 -41.81240845 402.25204468 C-98.31099647 402.18052155 -147.60286894 379.26020199 -187.375 339.75 C-187.97054687 339.15920654 -188.56609375 338.56841309 -189.1796875 337.9597168 C-198 329.10557639 -198 329.10557639 -198 326 C-198.66 326 -199.32 326 -200 326 C-201.46682594 324.11321144 -202.80489982 322.23642053 -204.125 320.25 C-204.72550171 319.35764648 -204.72550171 319.35764648 -205.33813477 318.44726562 C-206.16558713 317.21695526 -206.99084857 315.98516868 -207.81396484 314.75195312 C-208.85384518 313.21589275 -209.93363002 311.70700369 -211.01953125 310.203125 C-217.67777011 300.81921199 -222.35530918 290.49022325 -227 280 C-227.50926025 278.85072021 -227.50926025 278.85072021 -228.02880859 277.67822266 C-247.8825599 231.99116538 -249.22473509 174.78082353 -230.91210938 128.23486328 C-223.85900555 111.02654334 -215.58657176 95.27863454 -205 80 C-204.33339355 79.0095166 -204.33339355 79.0095166 -203.65332031 77.99902344 C-202.48627838 76.29676667 -201.24840233 74.64351957 -200 73 C-199.34 73 -198.68 73 -198 73 C-197.74734375 72.43023437 -197.4946875 71.86046875 -197.234375 71.2734375 C-194.67959403 66.56811305 -190.65682189 62.8689374 -187 59 C-186.49919922 58.4652002 -185.99839844 57.93040039 -185.48242188 57.37939453 C-170.92970575 41.9472658 -154.44512627 30.36734993 -136 20 C-135.3915625 19.65243652 -134.783125 19.30487305 -134.15625 18.94677734 C-118.0818608 9.87176104 -99.10020832 3.45301607 -81 0 C-80.27570801 -0.14663086 -79.55141602 -0.29326172 -78.80517578 -0.44433594 C-53.78841125 -5.31467109 -24.9289533 -5.39530767 0 0 Z " fill="#1C165D" transform="translate(243,3)"/>
<path d="M0 0 C0.84753845 -0.00067474 1.6950769 -0.00134949 2.56829834 -0.00204468 C15.49526813 0.01429383 28.01102726 0.50646441 40.6875 3.25 C41.50734375 3.42160645 42.3271875 3.59321289 43.171875 3.77001953 C72.35235368 10.03017207 98.48885453 22.72088815 122.8125 39.8125 C123.4108667 40.22999512 124.0092334 40.64749023 124.62573242 41.07763672 C126.01942464 42.08209582 127.36007783 43.15946506 128.6875 44.25 C128.6875 44.91 128.6875 45.57 128.6875 46.25 C129.22761719 46.47300781 129.76773437 46.69601563 130.32421875 46.92578125 C133.44669193 48.67539845 135.90886551 51.00236447 138.5 53.4375 C139.03117432 53.93145264 139.56234863 54.42540527 140.10961914 54.93432617 C145.97267322 60.40943003 151.79239615 65.87153134 156.6875 72.25 C156.6875 72.91 156.6875 73.57 156.6875 74.25 C157.3475 74.25 158.0075 74.25 158.6875 74.25 C159.88916016 75.60424805 159.88916016 75.60424805 161.2265625 77.51171875 C161.720354 78.21119629 162.21414551 78.91067383 162.72290039 79.63134766 C163.24746826 80.39237793 163.77203613 81.1534082 164.3125 81.9375 C164.85447021 82.71915527 165.39644043 83.50081055 165.95483398 84.30615234 C167.54380731 86.61322166 169.11843299 88.92935871 170.6875 91.25 C171.40808594 92.31089844 172.12867188 93.37179688 172.87109375 94.46484375 C186.86194569 116.1346664 196.22279283 140.88513839 200.6875 166.25 C200.86410156 167.20036133 201.04070312 168.15072266 201.22265625 169.12988281 C203.04790125 180.10416837 203.0851801 191.02503813 203.0625 202.125 C203.06168427 203.62317261 203.06168427 203.62317261 203.06085205 205.15161133 C203.02309768 220.22315673 202.38102614 234.56929495 198.6875 249.25 C198.37401611 250.56750244 198.37401611 250.56750244 198.05419922 251.91162109 C191.47399961 279.10485049 178.85521708 304.37236581 161.94921875 326.55859375 C160.81040108 328.08524406 159.74399156 329.66526266 158.6875 331.25 C158.0275 331.25 157.3675 331.25 156.6875 331.25 C156.46449219 331.79011719 156.24148438 332.33023437 156.01171875 332.88671875 C154.26210155 336.00919193 151.93513553 338.47136551 149.5 341.0625 C148.75907104 341.85926147 148.75907104 341.85926147 148.00317383 342.67211914 C142.52806997 348.53517322 137.06596866 354.35489615 130.6875 359.25 C130.0275 359.25 129.3675 359.25 128.6875 359.25 C128.6875 359.91 128.6875 360.57 128.6875 361.25 C126.70140975 362.86886247 124.72276584 364.34988334 122.625 365.8125 C121.9944873 366.25577637 121.36397461 366.69905273 120.71435547 367.15576172 C109.50301104 374.937493 97.75218111 381.5043359 85.45361328 387.39941406 C83.92900892 388.13368578 82.4146273 388.8891142 80.90234375 389.6484375 C56.28552472 401.59539449 28.48871007 405.48060939 1.4375 405.5 C0.59190521 405.50067474 -0.25368958 405.50134949 -1.12490845 405.50204468 C-57.62349647 405.43052155 -106.91536894 382.51020199 -146.6875 343 C-147.28304687 342.40920654 -147.87859375 341.81841309 -148.4921875 341.2097168 C-157.3125 332.35557639 -157.3125 332.35557639 -157.3125 329.25 C-157.9725 329.25 -158.6325 329.25 -159.3125 329.25 C-160.77932594 327.36321144 -162.11739982 325.48642053 -163.4375 323.5 C-164.03800171 322.60764648 -164.03800171 322.60764648 -164.65063477 321.69726562 C-165.47808713 320.46695526 -166.30334857 319.23516868 -167.12646484 318.00195312 C-168.16634518 316.46589275 -169.24613002 314.95700369 -170.33203125 313.453125 C-176.99027011 304.06921199 -181.66780918 293.74022325 -186.3125 283.25 C-186.82176025 282.10072021 -186.82176025 282.10072021 -187.34130859 280.92822266 C-206.37186458 237.13548607 -206.74213535 187.01861423 -193.6875 141.5625 C-193.4814917 140.83732178 -193.2754834 140.11214355 -193.06323242 139.36499023 C-192.5439924 137.63931171 -191.9361849 135.94073763 -191.3125 134.25 C-190.6525 133.92 -189.9925 133.59 -189.3125 133.25 C-189.3125 147.44 -189.3125 161.63 -189.3125 176.25 C-176.7725 176.25 -164.2325 176.25 -151.3125 176.25 C-151.6425 180.21 -151.9725 184.17 -152.3125 188.25 C-152.49755426 193.27134618 -152.49747131 198.28799321 -152.5 203.3125 C-152.51836914 205.23932617 -152.51836914 205.23932617 -152.53710938 207.20507812 C-152.55431714 218.45322263 -150.62076387 228.59781168 -147.72460938 239.39648438 C-146.52161474 244.01948673 -145.82363916 248.51274118 -145.3125 253.25 C-144.6525 253.25 -143.9925 253.25 -143.3125 253.25 C-142.82330078 254.80460937 -142.82330078 254.80460937 -142.32421875 256.390625 C-141.88321653 257.7605468 -141.44178777 259.13033133 -141 260.5 C-140.78666016 261.18191406 -140.57332031 261.86382812 -140.35351562 262.56640625 C-139.13407665 266.31572609 -137.83840019 269.22603498 -135.3125 272.25 C-135.02375 273.013125 -134.735 273.77625 -134.4375 274.5625 C-133.42912745 276.97138997 -132.42171517 278.56117408 -130.875 280.625 C-129.0763281 283.03886982 -128.08311466 284.82346334 -126.9375 287.6875 C-125.18223297 291.53558541 -123.14670809 293.95902989 -120.30859375 297.0390625 C-118.17286469 299.40466455 -116.22146913 301.87119749 -114.25 304.375 C-103.22352222 317.79209229 -91.05588383 328.06644334 -76.3125 337.25 C-75.69358887 337.64413086 -75.07467773 338.03826172 -74.43701172 338.44433594 C-40.85025624 359.48962361 3.14003002 362.73285108 41.04296875 354.078125 C48.22155199 352.32189668 55.17687606 350.392694 61.8203125 347.09765625 C64.99553311 345.6561858 68.28944881 344.99139299 71.6875 344.25 C71.6875 343.59 71.6875 342.93 71.6875 342.25 C72.80125 341.67894531 73.915 341.10789062 75.0625 340.51953125 C87.42282059 334.01431456 98.64539452 326.4514742 108.44921875 316.42578125 C110.6875 314.25 110.6875 314.25 113.6875 313.25 C114.90619929 310.74552484 114.90619929 310.74552484 115.6875 308.25 C114.73230469 308.03085937 113.77710938 307.81171875 112.79296875 307.5859375 C104.55769325 305.60242173 96.61171825 303.38158467 89.6875 298.25 C89.3575 297.26 89.0275 296.27 88.6875 295.25 C94.2975 294.92 99.9075 294.59 105.6875 294.25 C106.0175 279.73 106.3475 265.21 106.6875 250.25 C107.0175 251.57 107.3475 252.89 107.6875 254.25 C108.3475 254.25 109.0075 254.25 109.6875 254.25 C111.19987497 257.00313975 111.93515076 259.27891835 112.375 262.375 C113.40152459 267.43251142 115.91599177 270.8513495 119.03125 274.890625 C120.6875 277.25 120.6875 277.25 121.64453125 279.796875 C123.60394948 284.40554408 127.88055526 287.14897879 131.6875 290.25 C132.28046875 290.73984375 132.8734375 291.2296875 133.484375 291.734375 C138.10850059 295.3015576 143.22198063 297.28153327 148.6875 299.25 C149.0175 298.92 149.3475 298.59 149.6875 298.25 C147.76933691 295.78379031 145.9050776 293.45439107 143.625 291.3125 C140.24986596 287.71961538 138.65943548 284.79354881 138.75 279.8125 C139.83639431 275.68420161 141.41313497 272.84496409 143.6875 269.25 C144.3475 269.25 145.0075 269.25 145.6875 269.25 C145.6875 268.26 145.6875 267.27 145.6875 266.25 C146.3475 266.25 147.0075 266.25 147.6875 266.25 C147.77 265.1775 147.8525 264.105 147.9375 263 C148.36760683 259.49250907 149.26580054 256.49321855 150.5 253.1875 C152.62852043 247.10490331 153.78339346 240.96967835 154.875 234.625 C155.12503784 233.17661743 155.12503784 233.17661743 155.38012695 231.69897461 C159.53831025 206.65376887 160.40190997 178.82170194 149.6875 155.25 C149.05455243 153.19614972 148.44980554 151.13337474 147.875 149.0625 C145.86923872 142.35862866 142.91890049 136.43141499 139.6875 130.25 C138.14373108 127.01402284 136.80548576 124.00847987 136.25 120.4375 C136.064375 119.715625 135.87875 118.99375 135.6875 118.25 C135.06875 117.94449219 134.45 117.63898438 133.8125 117.32421875 C131.40442521 116.10690153 130.61672309 115.09154152 129.125 112.875 C124.82095148 106.88202105 119.73952366 101.60732581 114.6875 96.25 C114.02878906 95.53714844 113.37007813 94.82429688 112.69140625 94.08984375 C102.85476391 83.78781188 90.51603146 74.4277951 77.6875 68.25 C77.6875 67.59 77.6875 66.93 77.6875 66.25 C77.0584375 66.07984375 76.429375 65.9096875 75.78125 65.734375 C70.84813331 64.33764919 66.38034648 62.73534524 61.85083008 60.34204102 C54.18897137 56.4743631 46.37961484 54.27363606 38 52.5625 C37.00677734 52.35044922 36.01355469 52.13839844 34.99023438 51.91992188 C25.47648774 49.91602973 16.46625191 49.06353675 6.73876953 49.06469727 C4.72015498 49.06253498 2.70211024 49.04440528 0.68359375 49.02539062 C-11.78320169 49.00711087 -23.95130944 50.31126891 -36.0625 53.375 C-37.30205444 53.68606689 -37.30205444 53.68606689 -38.56665039 54.00341797 C-48.72456936 56.69898468 -59.16454619 60.48870041 -68.16015625 65.9921875 C-70.3125 67.25 -70.3125 67.25 -73.3125 67.25 C-73.3125 64.61 -73.3125 61.97 -73.3125 59.25 C-92.1225 58.92 -110.9325 58.59 -130.3125 58.25 C-130.3125 75.74 -130.3125 93.23 -130.3125 111.25 C-130.9725 110.92 -131.6325 110.59 -132.3125 110.25 C-132.3125 93.09 -132.3125 75.93 -132.3125 58.25 C-135.2825 58.25 -138.2525 58.25 -141.3125 58.25 C-132.675418 47.14518028 -121.08232532 38.91713483 -109.27050781 31.48388672 C-107.97269816 30.66604009 -106.68025794 29.83960573 -105.39355469 29.00439453 C-74.06991337 8.73662156 -36.91954799 0.02640499 0 0 Z " fill="#1C145B" transform="translate(202.3125,-0.25)"/>
<path d="M0 0 C0 0.66 0 1.32 0 2 C1.23943359 2.33257812 1.23943359 2.33257812 2.50390625 2.671875 C6.81238678 4.30861621 10.20280647 6.58328048 13.9375 9.25 C15.04532837 10.03648926 15.04532837 10.03648926 16.17553711 10.83886719 C23.48374378 16.15080375 30.02424777 22.1577827 36.45800781 28.484375 C37.76935875 29.77330259 39.09777667 31.04482924 40.4296875 32.3125 C44.74438192 36.47609617 48.48116111 40.95489499 52.140625 45.703125 C53.9254238 48.02705168 53.9254238 48.02705168 56.046875 49.859375 C58.59088861 52.64761392 59.61499985 55.49871963 61 59 C61.84618943 60.79839796 62.6925052 62.5967642 63.54980469 64.38989258 C67.93381339 73.57629586 71.46071159 82.84258717 74.28515625 92.62890625 C74.9437412 94.81339294 75.70778279 96.92392402 76.5 99.0625 C85.55242802 126.74664495 81.85460774 158.465074 74 186 C73.6181505 187.36318631 73.23664468 188.72646894 72.85546875 190.08984375 C71.92378718 193.3991994 70.96897902 196.701348 70 200 C69.34 200 68.68 200 68 200 C68 200.99 68 201.98 68 203 C67.34 203 66.68 203 66 203 C65.71125 203.7425 65.4225 204.485 65.125 205.25 C64 208 64 208 62.8125 209.875 C61.19721039 214.09960359 62.64038006 218.05363174 64.1875 222.125 C65.77552203 224.6439315 66.81672819 225.82838256 69.0625 227.625 C71.7053587 229.76177938 72.84956617 230.89382866 74 234 C63.67845729 233.18514137 55.52039283 226.55863745 48 220 C47.44957031 219.52175781 46.89914062 219.04351562 46.33203125 218.55078125 C44.33441016 216.69375519 43.06759346 215.17151841 42.0625 212.62109375 C40.98712449 209.96823725 39.69775732 208.04197238 38 205.75 C35.34982234 201.89695043 34.12610952 198.64564438 33.421875 194.04296875 C33.10222164 191.96803071 33.10222164 191.96803071 31.99023438 190.21655273 C30.77619525 187.4990327 30.74133792 185.46386418 30.734375 182.4921875 C30.73179687 181.42226562 30.72921875 180.35234375 30.7265625 179.25 C30.73429688 178.13625 30.74203125 177.0225 30.75 175.875 C30.74226562 174.78445312 30.73453125 173.69390625 30.7265625 172.5703125 C30.73847791 167.58966926 30.89237525 162.91229998 32 158.046875 C33.39602437 151.84717824 33.29977983 145.70476258 33.25 139.375 C33.23984863 137.52092529 33.23984863 137.52092529 33.22949219 135.62939453 C33.04561103 119.32597837 31.30538598 106.23780453 23 92 C23 91.34 23 90.68 23 90 C22.01 89.67 21.02 89.34 20 89 C18.99503675 87.33632135 17.99572139 85.66922637 17 84 C11.61697172 78.86556628 5.77615574 75.01162477 -1 72 C-1 71.34 -1 70.68 -1 70 C-2.499177 69.68357535 -3.99940113 69.37211151 -5.5 69.0625 C-6.3353125 68.88847656 -7.170625 68.71445313 -8.03125 68.53515625 C-15.63700992 67.16411795 -22.94640514 66.85883874 -30.66088867 66.87402344 C-31.80494675 66.8721553 -32.94900482 66.87028717 -34.12773132 66.86836243 C-36.60052962 66.86437304 -39.07333156 66.86228494 -41.54613304 66.86190033 C-47.48150802 66.8580291 -53.41678958 66.83194874 -59.35211241 66.80868387 C-68.45049623 66.7736475 -77.54875972 66.74702906 -86.6472168 66.74951172 C-93.45822045 66.7512702 -100.26875774 66.72701218 -107.07964516 66.6876297 C-109.67399365 66.67715161 -112.26839445 66.67565886 -114.86275291 66.68328094 C-118.48477115 66.692867 -122.10540214 66.67178879 -125.72729492 66.64355469 C-127.33655853 66.65884972 -127.33655853 66.65884972 -128.97833252 66.67445374 C-136.26609709 66.57236777 -136.26609709 66.57236777 -140.10029602 63.58209229 C-140.72719833 62.73000183 -141.35410065 61.87791138 -142 61 C-142.55042969 60.35417969 -143.10085937 59.70835938 -143.66796875 59.04296875 C-144.16941406 58.43066406 -144.67085937 57.81835938 -145.1875 57.1875 C-156.1503017 44.61461079 -172.20757521 35.26735281 -189 34 C-187.16202376 23.66698722 -171.82439193 15.20167746 -163.9375 9.5625 C-113.08551429 -24.94205021 -54.67929251 -25.29455461 0 0 Z " fill="#7D5FC2" transform="translate(280,66)"/>
<path d="M0 0 C11.82584883 2.99930948 19.76350117 10.35091217 28 19 C28.825 19.76957031 29.65 20.53914063 30.5 21.33203125 C41.58509404 33.16190505 43.58556403 48.09227377 43.26953125 63.67578125 C43.09540919 67.70916259 42.37708864 71.49267954 41.5 75.4375 C39.88948731 82.70066964 39.69591053 89.82402785 39.6875 97.25 C39.68234375 98.32693115 39.6771875 99.4038623 39.671875 100.51342773 C39.7591374 110.69274247 41.20784476 120.27513592 44.4140625 129.94140625 C45 132 45 132 45 135 C45.66 135 46.32 135 47 135 C48.83780622 137.60355882 49.9439615 139.76565719 50.6875 142.875 C52.3661685 146.87182977 54.78562228 148.71644428 58.125 151.38671875 C60 153 60 153 62 156 C63.65249487 156.70105843 65.32367583 157.35800351 67 158 C70.03327207 159.60824492 73.01843164 161.29810259 76 163 C76 163.66 76 164.32 76 165 C77.0725 165.144375 78.145 165.28875 79.25 165.4375 C83 166 83 166 84.9070282 166.52821159 C87.40470551 167.09122692 89.67652764 167.11845896 92.23754883 167.1111145 C93.29745026 167.1107872 94.35735168 167.1104599 95.44937134 167.11012268 C96.60689911 167.10488083 97.76442688 167.09963898 98.95703125 167.09423828 C101.49178048 167.09145206 104.02652984 167.08878213 106.5612793 167.08621216 C107.91930155 167.08321819 109.2773236 167.08013571 110.63534546 167.07696915 C114.83741413 167.06855705 119.03939157 167.07400306 123.24145508 167.08297729 C123.95099807 167.0844483 124.66054106 167.08591931 125.39158535 167.08743489 C126.84222931 167.09050544 128.29287317 167.09362546 129.74351692 167.09679389 C139.52410197 167.11797651 149.30438752 167.13163419 159.08496094 167.09960938 C165.68621861 167.07809521 172.28695187 167.08119874 178.88817501 167.11301792 C182.38068441 167.12888094 185.87219065 167.13208024 189.36465454 167.10525894 C193.25787637 167.07561956 197.14972091 167.10020743 201.04296875 167.12939453 C202.77926041 167.10331367 202.77926041 167.10331367 204.55062866 167.07670593 C212.18000194 167.19613576 212.18000194 167.19613576 214.54814148 169.51768112 C215.61474609 171.37887573 215.61474609 171.37887573 217 175 C223.48594179 183.58819916 230.64215812 188.89792084 240 194 C241.06347656 194.63035156 241.06347656 194.63035156 242.1484375 195.2734375 C248.00026515 198.55737453 254.47496313 199.68703526 261 201 C261 205 261 205 259 208 C257.33681385 209.00577811 255.66965702 210.0050009 254 211 C252.3022148 212.50732853 250.63750631 214.05239485 249 215.625 C226.90233236 236 226.90233236 236 217 236 C217 236.66 217 237.32 217 238 C171.39471095 255.29083965 127.87281299 258.63218685 82 239 C59.41691428 228.51674546 39.12019894 212.0345838 24.89453125 191.55078125 C23.01606046 188.88194683 23.01606046 188.88194683 20.390625 186.44921875 C18.09834552 184.10075595 17.0804145 182.51942062 15.9375 179.5 C14.41143679 175.7709907 12.55444043 173.13124956 10 170 C9.23034133 168.3324062 8.46476722 166.66095013 7.7890625 164.953125 C6.90216288 162.75782891 5.88692313 160.64032662 4.875 158.5 C3.12779428 154.61213383 2.36050128 151.23589008 2 147 C1.34 147 0.68 147 0 147 C-10.90858091 107.35256887 -10.81985039 65.02113285 9 28 C9.66 28 10.32 28 11 28 C12.01382963 24.3791799 12.49897691 20.72188582 13 17 C12.01 16.67 11.02 16.34 10 16 C9.31955404 14.33891134 8.65510837 12.67124362 8 11 C6.0739004 8.57637747 6.0739004 8.57637747 3.875 6.3125 C0 2.20996441 0 2.20996441 0 0 Z " fill="#7D60C2" transform="translate(57,106)"/>
<path d="M0 0 C4.45389179 8.90778358 3.18220162 20.3441993 3.1875 30.125 C3.19974609 31.32253906 3.21199219 32.52007812 3.22460938 33.75390625 C3.23469419 39.89219637 2.85075226 45.46081552 1.47875977 51.43603516 C0.51305263 56.607813 0.52143922 61.87759451 0.375 67.125 C0.31699219 68.84589844 0.31699219 68.84589844 0.2578125 70.6015625 C0.16450154 73.40089117 0.07871355 76.20022936 0 79 C-0.33 79 -0.66 79 -1 79 C-1.03758423 80.8097229 -1.03758423 80.8097229 -1.07592773 82.65600586 C-1.16982523 87.11575661 -1.27008833 91.57534513 -1.37231445 96.03491211 C-1.41573041 97.96814185 -1.45740042 99.90141159 -1.49731445 101.8347168 C-1.55485631 104.60738202 -1.6185962 107.37984457 -1.68359375 110.15234375 C-1.70030624 111.02213364 -1.71701874 111.89192352 -1.73423767 112.78807068 C-1.88612829 118.88612829 -1.88612829 118.88612829 -3 120 C-5.64984799 120.21128356 -8.28339897 120.37612666 -10.9375 120.5 C-16.12702618 120.54291236 -16.12702618 120.54291236 -21 122 C-27.51608601 117.30902141 -32.91979366 112.21808061 -38 106 C-38.56976563 105.31292969 -39.13953125 104.62585938 -39.7265625 103.91796875 C-41 102 -41 102 -41 99 C-41.95884582 99.00414807 -41.95884582 99.00414807 -42.93706226 99.00837994 C-58.52973786 99.07478881 -74.12236389 99.1243528 -89.71514606 99.15543652 C-97.25586862 99.17086999 -104.79649646 99.19189168 -112.3371582 99.22631836 C-118.91373089 99.25632906 -125.49023494 99.27560056 -132.06687421 99.28226548 C-135.54543034 99.28615811 -139.0237902 99.29523168 -142.5022831 99.31719017 C-146.39649612 99.34157091 -150.29052151 99.34196255 -154.18481445 99.34057617 C-155.32345947 99.351362 -156.46210449 99.36214783 -157.63525391 99.3732605 C-164.86077726 99.34554928 -171.13586465 98.26126985 -178 96 C-178 95.34 -178 94.68 -178 94 C-179.32 93.67 -180.64 93.34 -182 93 C-182.02469575 88.90658501 -182.04285793 84.81319879 -182.05493164 80.71972656 C-182.0599643 79.32681523 -182.06679098 77.9339092 -182.07543945 76.54101562 C-182.08755152 74.54038754 -182.09270412 72.53972112 -182.09765625 70.5390625 C-182.10289307 69.33459473 -182.10812988 68.13012695 -182.11352539 66.88916016 C-182 64 -182 64 -181 62 C-161.53 62 -142.06 62 -122 62 C-122 73.88 -122 85.76 -122 98 C-101.21 98 -80.42 98 -59 98 C-59 86.12 -59 74.24 -59 62 C-40.19 62 -21.38 62 -2 62 C-2 61.34 -2 60.68 -2 60 C-20.81 60 -39.62 60 -59 60 C-59.33 54.39 -59.66 48.78 -60 43 C-60.28917395 48.2203066 -60.28917395 48.2203066 -60.56811523 53.44116211 C-60.88888889 58.88888889 -60.88888889 58.88888889 -62 60 C-63.77991924 60.09370624 -65.56356739 60.11744271 -67.34594727 60.11352539 C-69.08164978 60.11334412 -69.08164978 60.11334412 -70.85241699 60.11315918 C-72.07803345 60.10804321 -73.3036499 60.10292725 -74.56640625 60.09765625 C-75.68591675 60.09664917 -76.80542725 60.09564209 -77.9588623 60.09460449 C-82.16008522 60.0893535 -86.36129359 60.07539239 -90.5625 60.0625 C-104.6390625 60.0315625 -104.6390625 60.0315625 -119 60 C-119 41.19 -119 22.38 -119 3 C-109.63625 2.814375 -100.2725 2.62875 -90.625 2.4375 C-87.66740723 2.37618896 -84.70981445 2.31487793 -81.66259766 2.25170898 C-79.3297603 2.20776018 -76.99691567 2.16419516 -74.6640625 2.12109375 C-73.44356201 2.09438599 -72.22306152 2.06767822 -70.96557617 2.04016113 C-69.80856201 2.01973755 -68.65154785 1.99931396 -67.45947266 1.97827148 C-66.451315 1.95828598 -65.44315735 1.93830048 -64.40444946 1.91770935 C-62 2 -62 2 -60 3 C-58.1514292 3.09101612 -56.29953621 3.11753146 -54.44873047 3.11352539 C-53.28767792 3.11344986 -52.12662537 3.11337433 -50.9303894 3.11329651 C-49.04285446 3.10555458 -49.04285446 3.10555458 -47.1171875 3.09765625 C-45.83264679 3.0962413 -44.54810608 3.09482635 -43.22463989 3.09336853 C-39.80843158 3.08954911 -36.39226574 3.07972373 -32.97607422 3.06866455 C-29.49056585 3.05843807 -26.00505041 3.0538135 -22.51953125 3.04882812 C-15.67964998 3.03863152 -8.83988536 3.0190585 -2 3 C-2 19.17 -2 35.34 -2 52 C-1.34 52 -0.68 52 0 52 C0 34.84 0 17.68 0 0 Z " fill="#1C145C" transform="translate(311,175)"/>
<path d="M0 0 C2.36328125 0.3125 2.36328125 0.3125 5 1 C7.1875 4 7.1875 4 9 7 C11.41576231 8.20788116 12.94687145 8.13257598 15.64622498 8.14476013 C16.62594772 8.15165863 17.60567047 8.15855713 18.61508179 8.16566467 C19.69399689 8.16827805 20.77291199 8.17089142 21.88452148 8.17358398 C23.58483772 8.1836145 23.58483772 8.1836145 25.31950378 8.19384766 C27.78911184 8.20792713 30.25873312 8.21981187 32.72836113 8.22979546 C36.64236573 8.24618281 40.55627339 8.26942345 44.4702301 8.29469299 C55.60176482 8.36584626 66.73334728 8.4254481 77.86499023 8.47680664 C84.66897832 8.50828206 91.47285253 8.55001256 98.27675056 8.59700203 C100.8661407 8.61296962 103.45555589 8.62531524 106.044981 8.63390923 C109.68040775 8.64614144 113.31558235 8.67032743 116.95092773 8.69702148 C118.01162476 8.69761063 119.07232178 8.69819977 120.16516113 8.69880676 C129.43360153 8.78842331 138.15766371 10.24905093 147 13 C147 13.66 147 14.32 147 15 C147.87398437 15.25007812 148.74796875 15.50015625 149.6484375 15.7578125 C153.15841076 17.05871168 155.63351275 18.64191797 158.625 20.875 C159.54539062 21.55304688 160.46578125 22.23109375 161.4140625 22.9296875 C167.63736264 27.91208791 167.63736264 27.91208791 169 32 C169.9820451 33.01763816 170.9853909 34.01482571 172 35 C182.12944191 46.89310503 179.77664646 62.18715172 179.4375 76.8125 C179.40233986 79.45113046 179.37040919 82.08980604 179.34179688 84.72851562 C179.26515356 91.15333798 179.14842981 97.57645613 179 104 C178.34 104 177.68 104 177 104 C177 87.83 177 71.66 177 55 C157.86 55 138.72 55 119 55 C119 59.29 119 63.58 119 68 C118.67 68 118.34 68 118 68 C117.67 63.71 117.34 59.42 117 55 C98.19 55 79.38 55 60 55 C60 73.81 60 92.62 60 112 C88.215 111.505 88.215 111.505 117 111 C117.33 105.06 117.66 99.12 118 93 C120 95 120 95 120 112 C138.81 112 157.62 112 177 112 C177 112.66 177 113.32 177 114 C158.19 114 139.38 114 120 114 C120 125.88 120 137.76 120 150 C99.21 150 78.42 150 57 150 C57 138.12 57 126.24 57 114 C28.62 114 0.24 114 -29 114 C-29 113.34 -29 112.68 -29 112 C-0.62 112 27.76 112 57 112 C57 93.19 57 74.38 57 55 C38.19 55 19.38 55 0 55 C0 36.66666667 0 18.33333333 0 0 Z " fill="#1B135A" transform="translate(132,123)"/>
<path d="M0 0 C7.35009811 0.01140738 14.70019743 0.01673307 22.05030227 0.021703 C37.10583422 0.03201151 52.16134952 0.04947032 67.21686852 0.07202661 C67.21686852 0.73202661 67.21686852 1.39202661 67.21686852 2.07202661 C68.35124352 2.19577661 69.48561852 2.31952661 70.65436852 2.44702661 C72.41780602 2.75640161 72.41780602 2.75640161 74.21686852 3.07202661 C74.54686852 3.73202661 74.87686852 4.39202661 75.21686852 5.07202661 C76.16561852 5.44327661 77.11436852 5.81452661 78.09186852 6.19702661 C83.76281398 8.51643171 88.42384633 12.32211393 93.21686852 16.07202661 C94.09085289 16.74233911 94.96483727 17.41265161 95.86530602 18.10327661 C111.01114019 30.59276448 118.0961058 52.47058958 120.66608727 71.37671411 C120.93872399 72.7108938 120.93872399 72.7108938 121.21686852 74.07202661 C121.87686852 74.40202661 122.53686852 74.73202661 123.21686852 75.07202661 C124.77562841 58.2596878 124.82909458 41.77161462 122.21686852 25.07202661 C123.20686852 24.57702661 123.20686852 24.57702661 124.21686852 24.07202661 C129.15088336 32.87186751 132.04208027 41.57220687 134.6939193 51.24536645 C135.30940677 53.39526245 136.05730558 55.47850375 136.84186852 57.57202661 C145.91269918 84.99185186 141.99391264 116.80900577 134.21686852 144.07202661 C133.83501902 145.43521292 133.4535132 146.79849555 133.07233727 148.16187036 C132.1406557 151.47122601 131.18584754 154.77337461 130.21686852 158.07202661 C129.55686852 158.07202661 128.89686852 158.07202661 128.21686852 158.07202661 C128.21686852 159.06202661 128.21686852 160.05202661 128.21686852 161.07202661 C127.55686852 161.07202661 126.89686852 161.07202661 126.21686852 161.07202661 C125.92811852 161.81452661 125.63936852 162.55702661 125.34186852 163.32202661 C124.21686852 166.07202661 124.21686852 166.07202661 123.02936852 167.94702661 C121.41407891 172.1716302 122.85724858 176.12565835 124.40436852 180.19702661 C125.99239055 182.71595811 127.03359671 183.90040917 129.27936852 185.69702661 C131.92222722 187.83380599 133.06643469 188.96585527 134.21686852 192.07202661 C123.89532581 191.25716798 115.73726135 184.63066406 108.21686852 178.07202661 C107.66643883 177.59378442 107.11600914 177.11554224 106.54889977 176.62280786 C104.55127868 174.7657818 103.28446198 173.24354502 102.27936852 170.69312036 C101.20399301 168.04026386 99.91462584 166.11399899 98.21686852 163.82202661 C95.56669086 159.96897704 94.34297804 156.71767099 93.63874352 152.11499536 C93.31909016 150.04005733 93.31909016 150.04005733 92.20710289 148.28857934 C90.99306377 145.57105931 90.95820644 143.53589079 90.95124352 140.56421411 C90.94866539 139.49429224 90.94608727 138.42437036 90.94343102 137.32202661 C90.95116539 136.20827661 90.95889977 135.09452661 90.96686852 133.94702661 C90.95913414 132.85647974 90.95139977 131.76593286 90.94343102 130.64233911 C90.95534643 125.66169587 91.10924377 120.98432659 92.21686852 116.11890161 C93.61289289 109.91920485 93.51664835 103.77678919 93.46686852 97.44702661 C93.45671715 95.5929519 93.45671715 95.5929519 93.44636071 93.70142114 C93.26247955 77.39800498 91.5222545 64.30983114 83.21686852 50.07202661 C83.21686852 49.41202661 83.21686852 48.75202661 83.21686852 48.07202661 C82.22686852 47.74202661 81.23686852 47.41202661 80.21686852 47.07202661 C79.21190527 45.40834796 78.21258991 43.74125298 77.21686852 42.07202661 C71.83384024 36.93759289 65.99302426 33.08365138 59.21686852 30.07202661 C59.21686852 29.41202661 59.21686852 28.75202661 59.21686852 28.07202661 C57.71769152 27.75560196 56.21746739 27.44413812 54.71686852 27.13452661 C53.88155602 26.96050317 53.04624352 26.78647974 52.18561852 26.60718286 C44.5798586 25.23614456 37.27046338 24.93086535 29.55597985 24.94605005 C28.41192177 24.94418191 27.2678637 24.94231378 26.0891372 24.94038904 C23.6163389 24.93639965 21.14353696 24.93431155 18.67073548 24.93392694 C12.7353605 24.93005571 6.80007894 24.90397535 0.86475611 24.88071048 C-8.23362771 24.84567411 -17.3318912 24.81905567 -26.43034828 24.82153833 C-33.24135193 24.82329681 -40.05188922 24.79903879 -46.86277664 24.75965631 C-49.45712514 24.74917822 -52.05152593 24.74768547 -54.64588439 24.75530756 C-58.26790263 24.76489361 -61.88853362 24.7438154 -65.5104264 24.7155813 C-67.11969001 24.73087633 -67.11969001 24.73087633 -68.761464 24.74648035 C-76.02837323 24.64468652 -76.02837323 24.64468652 -79.92517555 21.68805444 C-81.71559826 19.16711433 -82.64320716 16.92183742 -83.78313148 14.07202661 C-87.01632804 10.46932187 -90.67121554 7.43965164 -94.42766273 4.40405786 C-94.87496742 3.96448755 -95.32227211 3.52491724 -95.78313148 3.07202661 C-95.78313148 2.41202661 -95.78313148 1.75202661 -95.78313148 1.07202661 C-63.86329793 -0.15612761 -31.93715285 -0.05048789 0 0 Z " fill="#86BAFC" transform="translate(219.78313148021698,107.92797338962555)"/>
<path d="M0 0 C11.82584883 2.99930948 19.76350117 10.35091217 28 19 C28.825 19.76957031 29.65 20.53914063 30.5 21.33203125 C41.58509404 33.16190505 43.58556403 48.09227377 43.26953125 63.67578125 C43.09540919 67.70916259 42.37708864 71.49267954 41.5 75.4375 C39.88948731 82.70066964 39.69591053 89.82402785 39.6875 97.25 C39.68234375 98.32693115 39.6771875 99.4038623 39.671875 100.51342773 C39.7591374 110.69274247 41.20784476 120.27513592 44.4140625 129.94140625 C45 132 45 132 45 135 C45.66 135 46.32 135 47 135 C48.83780622 137.60355882 49.9439615 139.76565719 50.6875 142.875 C52.3661685 146.87182977 54.78562228 148.71644428 58.125 151.38671875 C60 153 60 153 62 156 C63.65249487 156.70105843 65.32367583 157.35800351 67 158 C70.03327207 159.60824492 73.01843164 161.29810259 76 163 C76 163.66 76 164.32 76 165 C77.0725 165.144375 78.145 165.28875 79.25 165.4375 C83 166 83 166 84.9070282 166.52821159 C87.40470551 167.09122692 89.67652764 167.11845896 92.23754883 167.1111145 C93.29745026 167.1107872 94.35735168 167.1104599 95.44937134 167.11012268 C96.60689911 167.10488083 97.76442688 167.09963898 98.95703125 167.09423828 C101.49178048 167.09145206 104.02652984 167.08878213 106.5612793 167.08621216 C107.91930155 167.08321819 109.2773236 167.08013571 110.63534546 167.07696915 C114.83741413 167.06855705 119.03939157 167.07400306 123.24145508 167.08297729 C123.95099807 167.0844483 124.66054106 167.08591931 125.39158535 167.08743489 C126.84222931 167.09050544 128.29287317 167.09362546 129.74351692 167.09679389 C139.52410197 167.11797651 149.30438752 167.13163419 159.08496094 167.09960938 C165.68621861 167.07809521 172.28695187 167.08119874 178.88817501 167.11301792 C182.38068441 167.12888094 185.87219065 167.13208024 189.36465454 167.10525894 C193.25787637 167.07561956 197.14972091 167.10020743 201.04296875 167.12939453 C202.77926041 167.10331367 202.77926041 167.10331367 204.55062866 167.07670593 C212.18329608 167.19618733 212.18329608 167.19618733 214.53825378 169.51397324 C215.59716797 171.37228394 215.59716797 171.37228394 217 175 C218.58700374 176.92504844 220.23342579 178.80276965 221.9375 180.625 C222.77152344 181.52476562 223.60554687 182.42453125 224.46484375 183.3515625 C226.94111858 185.93848751 229.45651235 188.47926269 232 191 C228.48684981 192.07827772 225.22719972 192.13619765 221.56347656 192.15390015 C220.59712296 192.16047353 220.59712296 192.16047353 219.61124706 192.1671797 C217.45437 192.18052459 215.29753376 192.18673692 213.140625 192.19287109 C211.59302081 192.20077572 210.04541844 192.20904489 208.49781799 192.21765137 C203.41522981 192.24383861 198.33263356 192.25917973 193.25 192.2734375 C191.49693802 192.27879929 189.74387609 192.28417681 187.99081421 192.28956985 C180.6939312 192.31119731 173.39705037 192.32993066 166.10014343 192.34119225 C155.66295834 192.35740886 145.22614684 192.39053238 134.78910255 192.44759309 C127.44027526 192.48639116 120.09154745 192.50583681 112.74262047 192.51111281 C108.35912736 192.51475393 103.97603301 192.52664169 99.59265137 192.55921555 C95.46223397 192.58946902 91.33245297 192.59554719 87.20194817 192.58383179 C85.69438227 192.58361246 84.18678536 192.5917996 82.6793232 192.60948563 C73.1170011 192.71547337 65.58692692 191.41065214 57 187 C56.20821854 186.61604757 55.41643707 186.23209515 54.60066223 185.8365078 C53.3038828 185.2053961 52.01465394 184.55847756 50.734375 183.89453125 C49.13758917 183.07096378 47.50724876 182.31333443 45.875 181.5625 C39.22888803 177.95048262 35.19582794 173.14784382 31 167 C30.36964844 166.11957031 29.73929688 165.23914063 29.08984375 164.33203125 C20.06954187 150.8971693 15.78958388 134.807642 13 119 C12.67 119 12.34 119 12 119 C8.76014947 133.49254568 9.08379823 148.48284961 12 163 C12.18691406 163.94101562 12.37382813 164.88203125 12.56640625 165.8515625 C12.70949219 166.56054688 12.85257813 167.26953125 13 168 C12.01 168 11.02 168 10 168 C5.05209144 162.59953882 2 154.27027679 2 147 C1.34 147 0.68 147 0 147 C-10.90858091 107.35256887 -10.81985039 65.02113285 9 28 C9.66 28 10.32 28 11 28 C12.01382963 24.3791799 12.49897691 20.72188582 13 17 C12.01 16.67 11.02 16.34 10 16 C9.31955404 14.33891134 8.65510837 12.67124362 8 11 C6.0739004 8.57637747 6.0739004 8.57637747 3.875 6.3125 C0 2.20996441 0 2.20996441 0 0 Z " fill="#86B9FB" transform="translate(57,106)"/>
<path d="M0 0 C0 4.29 0 8.58 0 13 C0.66 12.67 1.32 12.34 2 12 C8.40515061 11.45719063 11.80885186 12.1320857 17 16 C20.29271549 20.67353166 20.70231775 24.46924771 20 30 C17.875 32.75 17.875 32.75 15 35 C14.05125 35.763125 13.1025 36.52625 12.125 37.3125 C8.43817415 39.30338596 6.13249126 39.39735493 2 39 C1.01 38.505 1.01 38.505 0 38 C0.01160156 39.28777344 0.02320313 40.57554687 0.03515625 41.90234375 C0.0445327 43.58072772 0.05363305 45.25911326 0.0625 46.9375 C0.07087891 47.78763672 0.07925781 48.63777344 0.08789062 49.51367188 C0.09111328 50.32255859 0.09433594 51.13144531 0.09765625 51.96484375 C0.10289307 52.7137085 0.10812988 53.46257324 0.11352539 54.23413086 C0 56 0 56 -1 57 C-2.77991924 57.09370624 -4.56356739 57.11744271 -6.34594727 57.11352539 C-8.08164978 57.11334412 -8.08164978 57.11334412 -9.85241699 57.11315918 C-11.07803345 57.10804321 -12.3036499 57.10292725 -13.56640625 57.09765625 C-15.245672 57.09614563 -15.245672 57.09614563 -16.9588623 57.09460449 C-21.16008522 57.0893535 -25.36129359 57.07539239 -29.5625 57.0625 C-38.946875 57.041875 -48.33125 57.02125 -58 57 C-58 38.19 -58 19.38 -58 0 C-44.201875 -0.2784375 -44.201875 -0.2784375 -30.125 -0.5625 C-27.21961426 -0.62381104 -24.31422852 -0.68512207 -21.32080078 -0.74829102 C-19.02897919 -0.79224008 -16.73715019 -0.83580512 -14.4453125 -0.87890625 C-12.64694946 -0.9189679 -12.64694946 -0.9189679 -10.81225586 -0.95983887 C-9.10718872 -0.99047424 -9.10718872 -0.99047424 -7.36767578 -1.02172852 C-6.37728302 -1.04171402 -5.38689026 -1.06169952 -4.3664856 -1.08229065 C-2 -1 -2 -1 0 0 Z " fill="#1F175E" transform="translate(250,178)"/>
<path d="M0 0 C18.81 0 37.62 0 57 0 C57 18.81 57 37.62 57 57 C38.19 57 19.38 57 0 57 C0 38.19 0 19.38 0 0 Z " fill="#1D155C" transform="translate(132,178)"/>
<path d="M0 0 C11.5017301 17.25259515 5.50010136 49.97484173 2 69 C0.90477697 74.40332774 -0.48747994 79.69774566 -2 85 C-2.3818495 86.36318631 -2.76335532 87.72646894 -3.14453125 89.08984375 C-4.07621282 92.3991994 -5.03102098 95.701348 -6 99 C-6.66 99 -7.32 99 -8 99 C-8 99.99 -8 100.98 -8 102 C-8.66 102 -9.32 102 -10 102 C-10.28875 102.7425 -10.5775 103.485 -10.875 104.25 C-12 107 -12 107 -13.125 108.875 C-14.38267836 111.92936174 -14.12548225 114.73746159 -14 118 C-17.34092784 115.32335021 -18.25715705 112.09426207 -19.625 108.125 C-20.26308594 106.30355469 -20.26308594 106.30355469 -20.9140625 104.4453125 C-24.95717432 91.61788579 -22.99030708 79.24893556 -18 67 C-17.01 67.33 -16.02 67.66 -15 68 C-14.23217773 69.77832031 -14.23217773 69.77832031 -13.68359375 72.078125 C-13.47669922 72.90957031 -13.26980469 73.74101562 -13.05664062 74.59765625 C-12.85232422 75.47292969 -12.64800781 76.34820312 -12.4375 77.25 C-10.76466539 84.80921328 -10.76466539 84.80921328 -8 92 C-7.34 92.33 -6.68 92.66 -6 93 C-4.38556306 85.85142339 -2.88714826 78.68371689 -1.4375 71.5 C-1.21642578 70.42363281 -0.99535156 69.34726563 -0.76757812 68.23828125 C1.40732073 57.44920595 2.18656826 47.20733347 2.18530273 36.19848633 C2.187492 34.07027246 2.20571563 31.942576 2.22460938 29.81445312 C2.25156387 23.06835352 2.08719284 16.64714402 0.44311523 10.07446289 C-0.27926674 6.69260082 -0.12757298 3.44447055 0 0 Z " fill="#65A8DA" transform="translate(356,167)"/>
<path d="M0 0 C3 2.375 3 2.375 5 5 C5 5.66 5 6.32 5 7 C5.66 7 6.32 7 7 7 C8.85769346 10.71538692 8.47947216 15.05568375 7.50390625 19.01171875 C6.43836443 21.88326365 5.42821511 23.71032507 2.875 25.4375 C-2.87842915 26.56317092 -8.7414393 26.93860745 -14 24 C-16.90335283 21.61510303 -17.76856646 19.50431803 -18.34375 15.765625 C-18.5834823 11.905935 -18.74752156 9.11627215 -16.54296875 5.82421875 C-11.7252444 0.92535378 -7.0457312 -1.26110364 0 0 Z " fill="#E7E6ED" transform="translate(159,190)"/>
<path d="M0 0 C3.78262967 3.33761441 5.27832868 6.97166762 5.625 11.9375 C5.01762751 16.72055839 3.83632468 17.92280991 0.125 20.875 C-0.473125 21.473125 -1.07125 22.07125 -1.6875 22.6875 C-5.02580337 24.49972183 -8.21954388 24.51347698 -11.875 23.875 C-17.41656171 21.05384131 -17.41656171 21.05384131 -18.75 17.625 C-18.79125 17.0475 -18.8325 16.47 -18.875 15.875 C-19.535 15.875 -20.195 15.875 -20.875 15.875 C-21.73519208 6.20261792 -21.73519208 6.20261792 -18.625 2.3125 C-13.56572416 -2.17185813 -6.2149997 -2.43195641 0 0 Z " fill="#EEEDF2" transform="translate(264.875,192.125)"/>
<path d="M0 0 C3.56531075 1.99657402 5.79707285 4.0631475 7 8 C7.4295804 13.41271309 7.41866383 16.56839874 4 21 C3.59136719 21.53109375 3.18273437 22.0621875 2.76171875 22.609375 C-0.4466791 25.14194625 -4.18681384 24.45412285 -8.109375 24.359375 C-11.80769398 23.89958399 -13.58223384 22.82072719 -16 20 C-18.99526672 15.50709992 -18.80890403 11.25787617 -18 6 C-14.67238736 -1.41662817 -7.11884436 -1.17815376 0 0 Z " fill="#F3F2F6" transform="translate(211,191)"/>
<path d="M0 0 C9.59453303 2.70615034 9.59453303 2.70615034 13 7 C11.02 6.34 9.04 5.68 7 5 C7.65355469 5.93005859 7.65355469 5.93005859 8.3203125 6.87890625 C14.91416364 16.68404853 20.85513501 27.92791746 21 40 C21.12375 41.8253125 21.12375 41.8253125 21.25 43.6875 C21.15518501 51.52553924 19.10449592 59.83266376 16 67 C15.01 66.67 14.02 66.34 13 66 C12.81824219 64.94941406 12.63648437 63.89882812 12.44921875 62.81640625 C10.4879822 51.70697827 10.4879822 51.70697827 7 41 C6.34 40.67 5.68 40.34 5 40 C4.87625 40.763125 4.7525 41.52625 4.625 42.3125 C4 45 4 45 2 48 C2.52506828 42.78254934 3.7798559 38.77348889 6.0625 34.0625 C6.61035156 32.91910156 7.15820312 31.77570313 7.72265625 30.59765625 C8.14417969 29.74042969 8.56570312 28.88320312 9 28 C9.66 28 10.32 28 11 28 C12.01382963 24.3791799 12.49897691 20.72188582 13 17 C12.01 16.67 11.02 16.34 10 16 C9.31955404 14.33891134 8.65510837 12.67124362 8 11 C6.0739004 8.57637747 6.0739004 8.57637747 3.875 6.3125 C0 2.20996441 0 2.20996441 0 0 Z " fill="#6EB1E6" transform="translate(57,106)"/>
<path d="M0 0 C0.99 0.33 1.98 0.66 3 1 C4.58660898 1.09679864 6.17693665 1.13757761 7.76647949 1.14476013 C9.23812561 1.15510788 9.23812561 1.15510788 10.73950195 1.16566467 C11.81482178 1.16827805 12.8901416 1.17089142 13.99804688 1.17358398 C15.13173706 1.180271 16.26542725 1.18695801 17.43347168 1.19384766 C19.90033385 1.20791408 22.36720915 1.21980304 24.83409119 1.22979546 C28.74397504 1.24619958 32.65376252 1.26944041 36.56359863 1.29469299 C47.68232128 1.36580006 58.80109103 1.42546783 69.91992188 1.47680664 C76.718579 1.5082812 83.51712212 1.55000906 90.31568909 1.59700203 C92.90228813 1.61296786 95.48891223 1.62531428 98.07554626 1.63390923 C101.70607448 1.64614091 105.33635015 1.67032609 108.96679688 1.69702148 C110.02592285 1.69761063 111.08504883 1.69819977 112.17626953 1.69880676 C121.44046893 1.78851128 130.16174615 3.25032103 139 6 C136.20666993 7.11733203 135.02407137 7.00799628 132.120224 6.04336548 C126.72590242 4.43217714 121.22334014 4.69161473 115.63891602 4.68115234 C114.40894394 4.67110672 113.17897186 4.6610611 111.91172791 4.65071106 C108.55684088 4.62520353 105.20212129 4.60829729 101.84717679 4.59528303 C98.33442508 4.57960014 94.82175789 4.5528265 91.30906677 4.5272522 C84.66529635 4.48055539 78.02150987 4.44376742 71.37765974 4.41057932 C63.81047899 4.37229345 56.24338332 4.32290033 48.67627442 4.27259517 C33.11757787 4.16941072 17.55883352 4.0801067 2 4 C1.34 2.68 0.68 1.36 0 0 Z " fill="#3A3080" transform="translate(140,130)"/>
<path d="M0 0 C1.79293264 3.58586527 2.24976213 4.53853469 2.22705078 8.21777344 C2.22689972 9.03832214 2.22674866 9.85887085 2.22659302 10.70428467 C2.21627045 11.58046448 2.20594788 12.45664429 2.1953125 13.359375 C2.1924826 14.26375305 2.18965271 15.1681311 2.18673706 16.09991455 C2.17555782 18.98341195 2.15045733 21.86659675 2.125 24.75 C2.11496728 26.70702676 2.10584194 28.66405839 2.09765625 30.62109375 C2.07732892 35.41427931 2.03817601 40.20679046 2 45 C11.9 45 21.8 45 32 45 C32 45.66 32 46.32 32 47 C15.83 47 -0.34 47 -17 47 C-17.33 46.34 -17.66 45.68 -18 45 C-9.585 44.505 -9.585 44.505 -1 44 C-0.67 29.48 -0.34 14.96 0 0 Z " fill="#181150" transform="translate(309,250)"/>
<path d="M0 0 C0.33 0 0.66 0 1 0 C1.12117188 0.89460937 1.24234375 1.78921875 1.3671875 2.7109375 C2.25730502 9.13347775 3.20726706 15.48917762 4.6328125 21.81640625 C5.04098826 24.24374931 5.06045238 26.5430424 5 29 C2.91648385 25.41272872 2.19858621 21.79305958 1.375 17.75 C0.98441406 15.85507813 0.98441406 15.85507813 0.5859375 13.921875 C0.39257812 12.95765625 0.19921875 11.9934375 0 11 C-0.33 11 -0.66 11 -1 11 C-4.23985053 25.49254568 -3.91620177 40.48284961 -1 55 C-0.81308594 55.94101562 -0.62617187 56.88203125 -0.43359375 57.8515625 C-0.29050781 58.56054688 -0.14742187 59.26953125 0 60 C-0.99 60 -1.98 60 -3 60 C-7.13495694 55.38651688 -8.83014183 49.95564161 -10 44 C-9.01 44.33 -8.02 44.66 -7 45 C-6.17283798 42.07102598 -5.83357803 39.37039318 -5.71875 36.33203125 C-5.68136719 35.43806641 -5.64398438 34.54410156 -5.60546875 33.62304688 C-5.57066406 32.69556641 -5.53585938 31.76808594 -5.5 30.8125 C-5.18176697 22.50897533 -4.84434249 14.20596197 -3.0625 6.0625 C-2.90910156 5.33160156 -2.75570312 4.60070312 -2.59765625 3.84765625 C-2 2 -2 2 0 0 Z " fill="#5DA2D1" transform="translate(70,214)"/>
<path d="M0 0 C2.08343904 2.50012684 3.71433305 5.14195318 5.25 8 C5.78367187 8.99 5.78367187 8.99 6.328125 10 C7.13384316 12.39841683 6.81998065 13.64518377 6 16 C5.01 15.67 4.02 15.34 3 15 C3.01047363 15.68400879 3.02094727 16.36801758 3.03173828 17.07275391 C3.476385 50.54508319 3.476385 50.54508319 -2 61 C-2.33 61 -2.66 61 -3 61 C-3.53330505 57.4184073 -4.04946167 53.83454729 -4.5625 50.25 C-4.71396484 49.23421875 -4.86542969 48.2184375 -5.02148438 47.171875 C-5.16005859 46.1921875 -5.29863281 45.2125 -5.44140625 44.203125 C-5.57232666 43.30239258 -5.70324707 42.40166016 -5.83813477 41.47363281 C-5.99736203 39.04031365 -5.73710222 37.30785997 -5 35 C-4.80664062 36.07121094 -4.61328125 37.14242187 -4.4140625 38.24609375 C-4.15149745 39.64331489 -3.88845175 41.04044578 -3.625 42.4375 C-3.49867188 43.14455078 -3.37234375 43.85160156 -3.2421875 44.58007812 C-2.89377757 46.40052 -2.452957 48.20271648 -2 50 C-1.34 50.33 -0.68 50.66 0 51 C1.46452053 35.20409995 1.73548656 19.59930078 -0.66015625 3.89453125 C-0.77230469 2.93933594 -0.88445312 1.98414063 -1 1 C-0.67 0.67 -0.34 0.34 0 0 Z " fill="#5DA3D2" transform="translate(343,132)"/>
<path d="M0 0 C9.59453303 2.70615034 9.59453303 2.70615034 13 7 C11.02 6.34 9.04 5.68 7 5 C7.65355469 5.93005859 7.65355469 5.93005859 8.3203125 6.87890625 C14.91416364 16.68404853 20.85513501 27.92791746 21 40 C21.12375 41.8253125 21.12375 41.8253125 21.25 43.6875 C21.19945762 49.89157774 19.41687293 55.99515759 18 62 C17.67 62 17.34 62 17 62 C16.9729957 60.54176788 16.95360213 59.08339325 16.9375 57.625 C16.92589844 56.81289062 16.91429688 56.00078125 16.90234375 55.1640625 C17 53 17 53 18 51 C18.22571005 47.66745755 18.09840362 44.33677734 18 41 C17.97164062 40.01773438 17.94328125 39.03546875 17.9140625 38.0234375 C17.57343887 31.74623067 16.44531766 26.69112566 13.83984375 20.9609375 C13 19 13 19 13 17 C12.01 16.67 11.02 16.34 10 16 C9.31955404 14.33891134 8.65510837 12.67124362 8 11 C6.0739004 8.57637747 6.0739004 8.57637747 3.875 6.3125 C0 2.20996441 0 2.20996441 0 0 Z " fill="#6CD1F3" transform="translate(57,106)"/>
<path d="M0 0 C0.33 0 0.66 0 1 0 C0.98428955 0.9794458 0.9685791 1.9588916 0.95239258 2.96801758 C0.66288937 22.7743033 0.89964421 42.02180747 3.83813477 61.65454102 C4.00205025 64.02970854 3.71515659 65.74355204 3 68 C-0.58671009 53.82053943 -2.17840221 40.40794885 -2.25 25.8125 C-2.25926514 24.63679443 -2.26853027 23.46108887 -2.27807617 22.24975586 C-2.25087572 14.64696168 -1.49370578 7.45406821 0 0 Z " fill="#55AACE" transform="translate(52,177)"/>
<path d="M0 0 C4.5050758 9.01015159 3.15652037 20.55586364 3.125 30.4375 C3.12886719 31.67693359 3.13273437 32.91636719 3.13671875 34.19335938 C3.13542969 35.38638672 3.13414062 36.57941406 3.1328125 37.80859375 C3.13112061 39.41432251 3.13112061 39.41432251 3.12939453 41.05249023 C3.00825846 43.81187856 2.624897 46.31455634 2 49 C1.34 49 0.68 49 0 49 C0 32.83 0 16.66 0 0 Z " fill="#24256A" transform="translate(311,175)"/>
<path d="M0 0 C0.99 0.33 1.98 0.66 3 1 C3.765625 2.92578125 3.765625 2.92578125 4.25 5.3125 C4.50523437 6.48232422 4.50523437 6.48232422 4.765625 7.67578125 C5.00771617 10.07651867 4.7310448 11.71809588 4 14 C2.11608215 10.73454239 1.50712033 7.71888239 1 4 C-4.33902137 14.67804274 -2.67990683 27.03233449 0.265625 38.203125 C1.12282394 41.46777627 1.61074656 44.65242041 2 48 C0.11790145 45.17685218 -0.92011435 42.79588032 -2.0625 39.625 C-2.40410156 38.68914062 -2.74570312 37.75328125 -3.09765625 36.7890625 C-7.12986178 24.32588176 -4.83288826 11.86254392 0 0 Z " fill="#6DD1F4" transform="translate(338,234)"/>
<path d="M0 0 C0.66 0.33 1.32 0.66 2 1 C1.319375 1.495 0.63875 1.99 -0.0625 2.5 C-3.15137455 5.1288294 -5.65769891 7.95143636 -8.28515625 11.02734375 C-10.41551066 13.47797923 -12.66977069 15.7403837 -15 18 C-14.32453125 18.26554687 -13.6490625 18.53109375 -12.953125 18.8046875 C-12.06109375 19.15789062 -11.1690625 19.51109375 -10.25 19.875 C-9.36828125 20.22304687 -8.4865625 20.57109375 -7.578125 20.9296875 C-5.3259752 21.8646709 -3.16350541 22.87780794 -1 24 C-3 25 -3 25 -4.8828125 24.4765625 C-5.62273437 24.19554688 -6.36265625 23.91453125 -7.125 23.625 C-11.45749823 22.0872089 -15.42940231 21.41550888 -20 21 C-18.56547382 12.9351638 -9.23056949 7.62130245 -3.2578125 2.8203125 C-1.15830005 1.19385593 -1.15830005 1.19385593 0 0 Z " fill="#7338A7" transform="translate(111,79)"/>
<path d="M0 0 C5.61 0 11.22 0 17 0 C17 2.64 17 5.28 17 8 C12.40191871 7.46105575 9.13215631 6.23428472 5.125 3.9375 C4.15820312 3.38964844 3.19140625 2.84179688 2.1953125 2.27734375 C1.47085937 1.85582031 0.74640625 1.43429687 0 1 C0 0.67 0 0.34 0 0 Z " fill="#251764" transform="translate(292,297)"/>
<path d="M0 0 C13.2 0 26.4 0 40 0 C40 0.33 40 0.66 40 1 C27.79 1 15.58 1 3 1 C3 1.66 3 2.32 3 3 C3.53625 3.226875 4.0725 3.45375 4.625 3.6875 C9.77862257 6.53555458 13.5146469 10.30817852 17 15 C16.67 15.66 16.34 16.32 16 17 C15.5153125 16.49210937 15.030625 15.98421875 14.53125 15.4609375 C10.43309571 11.25244829 6.35070172 7.60075942 1.46875 4.32421875 C0.9840625 3.88722656 0.499375 3.45023437 0 3 C0 2.01 0 1.02 0 0 Z " fill="#A95FE7" transform="translate(121,108)"/>
<path d="M0 0 C5.28 0 10.56 0 16 0 C13.35719359 2.64280641 10.27123173 3.71943083 6.875 5.125 C6.21628906 5.40214844 5.55757812 5.67929687 4.87890625 5.96484375 C3.25443173 6.64759391 1.62745052 7.32437433 0 8 C0 5.36 0 2.72 0 0 Z " fill="#1E145D" transform="translate(132,58)"/>
<path d="M0 0 C3.68097768 3.21175415 5.60443212 6.79553622 7.5625 11.1875 C7.86478516 11.85370361 8.16707031 12.51990723 8.47851562 13.20629883 C14.61873314 26.93021774 14.61873314 26.93021774 13 32 C12.45472656 30.45892578 12.45472656 30.45892578 11.8984375 28.88671875 C9.17699376 21.33952808 6.34514005 14.24190008 2.19921875 7.33203125 C0.93535555 4.87429076 0.41085414 2.72130451 0 0 Z " fill="#67A1D8" transform="translate(323,135)"/>
<path d="M0 0 C9.59453303 2.70615034 9.59453303 2.70615034 13 7 C11.02 6.34 9.04 5.68 7 5 C7.37253906 5.53109375 7.74507813 6.0621875 8.12890625 6.609375 C8.60199219 7.31578125 9.07507813 8.0221875 9.5625 8.75 C10.03816406 9.44609375 10.51382813 10.1421875 11.00390625 10.859375 C12 13 12 13 11.65234375 15.265625 C11.43707031 15.83796875 11.22179687 16.4103125 11 17 C10.67 16.195625 10.34 15.39125 10 14.5625 C7.96936087 10.41207174 4.79038853 7.28603326 1.64453125 3.953125 C0 2 0 2 0 0 Z " fill="#57B7D7" transform="translate(57,106)"/>
<path d="M0 0 C0.33 0 0.66 0 1 0 C0.48400816 7.8822202 -1.0921453 15.34458305 -3 23 C-3.66 23 -4.32 23 -5 23 C-5.84381994 14.73056456 -2.78872975 7.6490873 0 0 Z " fill="#56B3D3" transform="translate(58,154)"/>
<path d="M0 0 C0.33 0 0.66 0 1 0 C1.36463732 1.74784829 1.7163078 3.49840502 2.0625 5.25 C2.25972656 6.22453125 2.45695312 7.1990625 2.66015625 8.203125 C2.98397535 10.868119 2.85503199 12.48871723 2 15 C-2.3590077 11.51279384 -2.94552183 8.27239085 -4 3 C-3.01 3.33 -2.02 3.66 -1 4 C-0.67 2.68 -0.34 1.36 0 0 Z " fill="#62A5D6" transform="translate(64,255)"/>
<path d="M0 0 C6.13722814 0.32301201 11.16230728 3.3956321 16 7 C16 7.66 16 8.32 16 9 C16.5775 9.2475 17.155 9.495 17.75 9.75 C20.3002997 11.16683317 22.01785701 12.87627537 24 15 C23.67 15.66 23.34 16.32 23 17 C22.3709375 16.40832031 21.741875 15.81664063 21.09375 15.20703125 C14.64386859 9.25254735 8.40451129 3.88905076 0 1 C0 0.67 0 0.34 0 0 Z " fill="#7296DA" transform="translate(294,112)"/>
<path d="M0 0 C2.80048365 1.40024183 3.02054503 3.42908914 4.13671875 6.2109375 C5.31173528 8.64603963 6.96868134 10.24886323 9 12 C8.67 12.66 8.34 13.32 8 14 C7.67 13.67 7.34 13.34 7 13 C4.67182036 12.63239269 2.3381615 12.29758419 0 12 C0 8.04 0 4.08 0 0 Z " fill="#211E63" transform="translate(72,283)"/>
<path d="M0 0 C0.33 0 0.66 0 1 0 C0.67 8.25 0.34 16.5 0 25 C-0.33 25 -0.66 25 -1 25 C-2.17700048 20.37540756 -2.11408412 15.92133538 -2.0625 11.1875 C-2.05573242 10.00510742 -2.05573242 10.00510742 -2.04882812 8.79882812 C-2.03711312 6.86585239 -2.01917998 4.93291607 -2 3 C-1.34 3 -0.68 3 0 3 C0 2.01 0 1.02 0 0 Z " fill="#28346F" transform="translate(311,224)"/>
<path d="M0 0 C0.66 0 1.32 0 2 0 C3.62109375 2.23046875 3.62109375 2.23046875 5.4375 5.1875 C6.03433594 6.15042969 6.63117188 7.11335938 7.24609375 8.10546875 C8.36975971 9.95989297 9.48395849 11.820107 10.5859375 13.6875 C12.19074407 16.31193505 14.03913068 18.63343358 16 21 C11.11180735 19.1199259 7.01357911 15.25239803 4.875 10.5 C4.58625 9.675 4.2975 8.85 4 8 C3.29875 6.948125 2.5975 5.89625 1.875 4.8125 C0 2 0 2 0 0 Z " fill="#4F9DC4" transform="translate(317,268)"/>
<path d="M0 0 C0.99 0 1.98 0 3 0 C3.33851178 2.68693722 3.670936 5.37440289 4 8.0625 C4.09539062 8.81466797 4.19078125 9.56683594 4.2890625 10.34179688 C4.84571902 14.93421317 5.09829028 19.3742135 5 24 C4.67 24 4.34 24 4 24 C3.01 17.73 2.02 11.46 1 5 C0.01 5.495 0.01 5.495 -1 6 C-0.67 4.02 -0.34 2.04 0 0 Z " fill="#6BC8EE" transform="translate(69,210)"/>
<path d="M0 0 C0.33 0 0.66 0 1 0 C1.66 4.62 2.32 9.24 3 14 C3.66 12.02 4.32 10.04 5 8 C5.66 8.66 6.32 9.32 7 10 C5.68 12.97 4.36 15.94 3 19 C2.34 19 1.68 19 1 19 C0.67 12.73 0.34 6.46 0 0 Z " fill="#6AC8EE" transform="translate(338,178)"/>
<path d="M0 0 C3.24299151 2.38957269 5.50902342 4.2047869 7 8 C1.65155992 7.46515599 -2.35796103 5.53309233 -7 3 C-3.98968256 2.06576355 -3.13349732 1.95550089 0 3 C0 2.01 0 1.02 0 0 Z " fill="#55B0D0" transform="translate(347,292)"/>
<path d="M0 0 C7.59849633 1.85329179 12.46685025 6.83491634 17 13 C16.67 13.66 16.34 14.32 16 15 C15.5153125 14.49210937 15.030625 13.98421875 14.53125 13.4609375 C10.4248613 9.24399218 6.27979046 5.52439057 1.46875 2.12890625 C0.9840625 1.75636719 0.499375 1.38382812 0 1 C0 0.67 0 0.34 0 0 Z " fill="#8F53D2" transform="translate(121,110)"/>
<path d="M0 0 C0.33 0 0.66 0 1 0 C2.77401632 4.62974991 3.39641621 8.96044843 3.625 13.875 C3.66367187 14.56335938 3.70234375 15.25171875 3.7421875 15.9609375 C3.83548166 17.64023246 3.91878238 19.32007767 4 21 C0.20936564 17.20936564 0.13454217 10.6950478 -0.125 5.49609375 C-0.125 3.66358874 -0.06910195 1.83120166 0 0 Z " fill="#4E8CBB" transform="translate(52,224)"/>
<path d="M0 0 C3.86574861 0.62554841 7.07753411 1.79081129 10.625 3.4375 C11.56601563 3.86933594 12.50703125 4.30117188 13.4765625 4.74609375 C16 6 16 6 19 8 C11.83292123 7.67422369 6.23072876 4.34556372 0 1 C0 0.67 0 0.34 0 0 Z " fill="#7792DB" transform="translate(107,290)"/>
<path d="M0 0 C3 1 3 1 4.25 2.8125 C5.11637742 5.33943414 4.88492145 6.52221994 4 9 C2.68 8.34 1.36 7.68 0 7 C0 4.69 0 2.38 0 0 Z " fill="#67B0E0" transform="translate(345,139)"/>
<path d="M0 0 C1.68178661 2.52267991 2.90106742 4.81091823 4.125 7.5625 C4.47820312 8.34753906 4.83140625 9.13257813 5.1953125 9.94140625 C6 12 6 12 6 14 C4.125 13.375 4.125 13.375 2 12 C0.14584742 7.92086433 -0.21177017 4.4471735 0 0 Z " fill="#6CD4F5" transform="translate(343,248)"/>
<path d="M0 0 C1.8125 0.5625 1.8125 0.5625 4 2 C5.99762711 5.92126804 7.34078436 9.64917679 8 14 C5.50447597 11.72402354 3.93377014 9.39278822 2.3125 6.4375 C1.87550781 5.65246094 1.43851562 4.86742188 0.98828125 4.05859375 C0 2 0 2 0 0 Z " fill="#3C4F90" transform="translate(334,116)"/>
<path d="M0 0 C-3.10378852 2.63822024 -5.81462924 3.70365731 -9.75 4.6875 C-11.22726562 5.06455078 -11.22726562 5.06455078 -12.734375 5.44921875 C-13.48203125 5.63097656 -14.2296875 5.81273437 -15 6 C-15 5.34 -15 4.68 -15 4 C-13.44219668 3.32243118 -11.87849904 2.65840543 -10.3125 2 C-9.44238281 1.62875 -8.57226562 1.2575 -7.67578125 0.875 C-4.9427998 -0.01870488 -2.85299066 -0.16449676 0 0 Z " fill="#7037A5" transform="translate(274,343)"/>
<path d="M0 0 C2.0343459 1.41519715 2.90410393 2.54982123 3.421875 4.98046875 C3.66273952 6.98176954 3.83532741 8.9909944 4 11 C3.67 10.01 3.34 9.02 3 8 C2.34 8 1.68 8 1 8 C0.67 5.36 0.34 2.72 0 0 Z " fill="#5490C1" transform="translate(56,245)"/>
<path d="M0 0 C3 1 3 1 5 4 C4.625 6.1875 4.625 6.1875 4 8 C0 2.25 0 2.25 0 0 Z " fill="#435799" transform="translate(74,286)"/>
<path d="M0 0 C2.83374881 3.20336822 3.5205537 5.78087253 4 10 C0.06153846 5.69230769 0.06153846 5.69230769 -0.25 2.1875 C-0.1675 1.465625 -0.085 0.74375 0 0 Z " fill="#519AC5" transform="translate(94,139)"/>
<path d="M0 0 C1.625 1.6875 1.625 1.6875 3 4 C2.1875 6.75 2.1875 6.75 1 9 C-0.61949011 6.42786866 -1.04408751 5.32330841 -0.625 2.25 C-0.41875 1.5075 -0.2125 0.765 0 0 Z " fill="#5E96CC" transform="translate(343,132)"/>
</svg>
